<?xml version="1.0" standalone="no"?>
<!DOCTYPE svg PUBLIC "-//W3C//DTD SVG 20010904//EN"
 "http://www.w3.org/TR/2001/REC-SVG-20010904/DTD/svg10.dtd">
<svg version="1.0" xmlns="http://www.w3.org/2000/svg"
 width="455.000000pt" height="455.000000pt" viewBox="0 0 455.000000 455.000000"
 preserveAspectRatio="xMidYMid meet">
<metadata>
Created by potrace 1.14, written by Peter Selinger 2001-2017
</metadata>
<g transform="translate(0.000000,455.000000) scale(0.100000,-0.100000)"
fill="#000000" stroke="none">
<path d="M2214 3740 c-111 -22 -255 -133 -307 -236 -44 -88 -50 -128 -53 -345
l-2 -206 57 -26 c93 -43 231 -125 324 -194 l88 -64 38 31 c73 57 225 152 327
204 l101 51 -2 205 c-2 216 -7 246 -58 350 -28 57 -126 154 -186 184 -102 52
-216 68 -327 46z m190 -460 c72 -35 108 -117 92 -205 -8 -40 -55 -99 -97 -121
-33 -17 -106 -18 -146 -3 -41 15 -91 67 -104 108 -52 157 106 294 255 221z"/>
<path d="M1259 2801 c-65 -13 -149 -64 -199 -118 -88 -96 -126 -209 -117 -348
9 -144 80 -266 205 -352 104 -71 131 -76 431 -79 145 -2 266 -6 269 -9 3 -2 6
-123 7 -267 1 -222 4 -271 19 -313 50 -141 140 -237 276 -294 60 -26 198 -34
298 -19 130 20 241 115 274 233 42 151 18 321 -77 552 -143 346 -406 640 -761
849 -131 77 -243 125 -379 161 -35 9 -208 12 -246 4z"/>
<path d="M3142 2785 c-87 -24 -198 -64 -279 -101 -86 -40 -216 -113 -221 -126
-2 -4 -8 -8 -13 -8 -13 0 -99 -63 -99 -72 0 -5 28 -41 62 -81 80 -93 177 -241
249 -383 l58 -113 204 1 c182 1 211 4 269 23 155 52 273 176 313 325 19 71 11
239 -15 307 -43 115 -119 188 -237 227 -57 18 -225 19 -291 1z"/>
</g>
</svg>
